<?xml version="1.0" encoding="utf-8"?>
<!-- Generator: Adobe Illustrator 25.4.1, SVG Export Plug-In . SVG Version: 6.00 Build 0)  -->
<svg version="1.1" id="Layer_1" xmlns="http://www.w3.org/2000/svg" xmlns:xlink="http://www.w3.org/1999/xlink" x="0px" y="0px"
	 viewBox="0 0 4000 4000" style="enable-background:new 0 0 4000 4000;" xml:space="preserve">
<style type="text/css">
	.st0{fill:#EE5708;}
</style>
<g>
	<path d="M3702.56,1280.73c-93.07-220.04-226.29-417.65-395.97-587.32c-169.68-169.68-367.28-302.9-587.32-395.97
		C2491.42,201.07,2249.42,152.2,2000,152.2s-491.42,48.86-719.27,145.24c-220.05,93.07-417.65,226.29-587.32,395.97
		c-169.68,169.68-302.9,367.28-395.97,587.32C201.06,1508.58,152.2,1750.58,152.2,2000s48.86,491.42,145.24,719.27
		c93.07,220.04,226.29,417.65,395.97,587.32c169.68,169.68,367.28,302.9,587.32,395.97c227.85,96.37,469.84,145.24,719.27,145.24
		s491.42-48.86,719.26-145.24c220.05-93.07,417.65-226.29,587.32-395.97c169.68-169.68,302.9-367.28,395.97-587.32
		c96.37-227.85,145.24-469.84,145.24-719.27S3798.94,1508.58,3702.56,1280.73z M3716.38,2000c0,101.94-8.88,202.52-26.17,300.88
		c-613.91,33.18-1218.76-21.39-1799.82-162.34c150.06-389.41,551.43-571.23,1012.51-780.02
		c181.78-82.31,369.18-167.24,552.08-270.06C3625.21,1359.01,3716.38,1672.49,3716.38,2000z M3213.66,786.34
		c60.82,60.82,116.5,125.39,166.85,193.2c-174.97,97.6-356.06,179.66-531.83,259.25c-473.3,214.32-921.38,417.29-1086.45,867.17
		c-101.63-27.04-203.8-57.08-304.48-89.63c-26.85-8.69-53.47-17.53-79.74-26.43c142.61-344.4,333.66-666.64,568.55-958.72
		c188.98-235,406.6-450.95,647.08-642.48C2823.89,473.39,3035.02,607.7,3213.66,786.34z M2000,283.62
		c151.82,0,300.59,19.7,443.51,57.66c-221.11,183.5-422.35,387.43-599.35,607.54c-244.24,303.71-442.61,639.02-590.3,997.48
		c-84.65-30.77-169-63.64-252.42-98.27c46.18-199.52,48.41-433.89,6.43-699.31c-32.6-206.12-84.14-377.27-112.51-462.4
		C1204.24,425.7,1591.18,283.62,2000,283.62z M786.34,786.34c0.72-0.72,1.45-1.4,2.17-2.12c59.5,195.18,168.43,632.36,89.75,1011.05
		c-14.76-6.52-29.52-13.04-44.2-19.66c-164.24-74.05-327.31-156.66-485.51-245.7C427.33,1251.58,576.18,996.5,786.34,786.34z
		 M283.62,2000c0-114.59,11.15-227.46,32.95-337.38c151.4,84.03,306.91,162.2,463.46,232.78c20.96,9.46,42.01,18.8,63.13,28.04
		c-4.27,12.31-8.71,24.55-13.48,36.64c-82.19,208.02-232.68,420.19-234.19,422.3c-59.66,83.59-125.72,163.14-197.01,237.45
		C323.06,2424.77,283.62,2215.42,283.62,2000z M455.14,2749.65c90.38-89.78,173.47-187.43,247.33-290.92
		c6.54-9.17,161.22-227.07,249.45-450.35c4.34-10.99,8.47-22.15,12.48-33.41c79.83,32.92,160.46,64.23,241.37,93.69
		c-154.38,412.04-240.4,844.73-256.33,1288.91c-56.86-44.19-111.34-92.17-163.08-143.91
		C648.88,3076.2,537.72,2919.47,455.14,2749.65z M1078.56,3448.71c6.78-461.19,91.21-910.29,251.18-1336.41
		c28.81,9.8,58.04,19.53,87.55,29.08c101.81,32.91,205.08,63.31,307.85,90.71c-36.95,165.66-26.13,326.77,33.04,501.63
		c58.96,174.23,157.32,340.69,271.21,533.45c79.24,134.12,160.8,272.21,238.44,428.45c-87.81,13.68-177.28,20.76-267.84,20.76
		C1668.49,3716.38,1351.36,3622.97,1078.56,3448.71z M3213.66,3213.66c-227.34,227.35-507.27,382.94-812.32,455.68
		c-85.02-174.85-176.9-330.45-258.78-469.03c-207.47-351.12-360.66-610.47-289.97-935.71
		c483.33,117.83,982.65,177.16,1489.96,177.16c105.89,0,212.17-2.63,318.69-7.8C3585.38,2726.33,3432.88,2994.44,3213.66,3213.66z"
		/>
	<path class="st0" d="M595.52,2382.39c-59.67,83.58-125.75,163.12-197.03,237.45c-75.44-195.08-114.86-404.41-114.86-619.84
		c0-114.6,11.15-227.47,32.96-337.39c151.4,84.06,306.9,162.23,463.45,232.78c20.97,9.46,42,18.82,63.14,28.07
		c-4.26,12.3-8.73,24.55-13.51,36.64C747.49,2168.12,596.99,2380.28,595.52,2382.39z"/>
	<path class="st0" d="M878.29,1795.24C956.93,1416.59,848,979.43,788.5,784.24c-0.68,0.68-1.42,1.37-2.16,2.1
		c-210.17,210.17-358.99,465.23-437.79,743.53c158.23,89.05,321.25,171.69,485.53,245.71
		C848.74,1782.21,863.51,1788.73,878.29,1795.24z"/>
	<path class="st0" d="M964.39,1974.98c-4,11.25-8.15,22.39-12.46,33.38c-88.26,223.31-242.92,441.21-249.49,450.36
		c-73.86,103.51-156.92,201.13-247.28,290.92c82.59,169.85,193.72,326.56,331.18,464.03c51.73,51.73,106.24,99.72,163.07,143.93
		c15.93-444.21,101.98-876.9,256.33-1288.94C1124.83,2039.22,1044.24,2007.89,964.39,1974.98z"/>
	<path class="st0" d="M1758.18,2733.7c-59.14-174.84-69.97-335.97-33.01-501.61c-102.77-27.39-206.07-57.83-307.84-90.73
		c-29.54-9.52-58.77-19.24-87.58-29.07c-159.97,426.12-244.39,875.22-251.17,1336.41c272.78,174.27,589.93,267.68,921.43,267.68
		c90.58,0,180.05-7.1,267.84-20.76c-77.64-156.23-159.18-294.33-238.45-428.44C1915.52,3074.4,1817.17,2907.97,1758.18,2733.7z"/>
	<path class="st0" d="M1001.45,1848.02c83.43,34.64,167.75,67.5,252.38,98.3c147.72-358.47,346.06-693.8,590.3-997.5
		c177.05-220.11,378.29-424.07,599.39-607.54c-142.94-37.95-291.71-57.67-443.52-57.67c-408.83,0-795.74,142.09-1104.63,402.68
		c28.33,85.16,79.9,256.33,112.5,462.4C1049.87,1414.12,1047.61,1648.52,1001.45,1848.02z"/>
	<path class="st0" d="M1946.54,1031.21c-234.88,292.07-425.91,614.27-568.53,958.7c26.28,8.88,52.88,17.72,79.75,26.44
		c100.67,32.54,202.86,62.56,304.48,89.63c165.07-449.88,613.16-652.85,1086.44-867.18c175.79-79.59,356.89-161.65,531.84-259.27
		c-50.36-67.81-106.03-132.37-166.85-193.19c-178.63-178.63-389.8-312.94-620-397.63C2353.16,580.22,2135.52,796.17,1946.54,1031.21
		z"/>
	<path class="st0" d="M1852.6,2264.58c-70.7,325.24,82.48,584.62,289.97,935.73c81.85,138.57,173.74,294.18,258.74,469.02
		c305.06-72.7,584.99-228.31,812.35-455.67c219.21-219.21,371.71-487.31,447.57-779.7c-106.5,5.15-212.8,7.78-318.67,7.78
		C2835.21,2441.74,2335.91,2382.44,1852.6,2264.58z"/>
	<path class="st0" d="M3455,1088.45c-182.94,102.82-370.35,187.72-552.13,270.05c-461.08,208.8-862.45,390.64-1012.48,780.02
		c581.04,140.99,1185.9,195.56,1799.8,162.33c17.3-98.36,26.18-198.92,26.18-300.85C3716.38,1672.5,3625.22,1359.03,3455,1088.45z"
		/>
</g>
</svg>
