<?xml version="1.0" encoding="utf-8"?>
<!-- Generator: Adobe Illustrator 25.4.1, SVG Export Plug-In . SVG Version: 6.00 Build 0)  -->
<svg version="1.1" id="Layer_1" xmlns="http://www.w3.org/2000/svg" xmlns:xlink="http://www.w3.org/1999/xlink" x="0px" y="0px"
	 viewBox="0 0 4000 4000" style="enable-background:new 0 0 4000 4000;" xml:space="preserve">
<style type="text/css">
	.st0{fill:#EE5708;}
</style>
<path d="M3702.56,1280.73c-93.07-220.04-226.29-417.65-395.97-587.32c-169.68-169.68-367.28-302.9-587.32-395.97
	C2491.42,201.07,2249.42,152.2,2000,152.2s-491.42,48.86-719.27,145.24c-220.05,93.07-417.65,226.29-587.32,395.97
	c-169.68,169.68-302.9,367.28-395.97,587.32C201.06,1508.58,152.2,1750.58,152.2,2000s48.86,491.42,145.24,719.27
	c93.07,220.04,226.29,417.65,395.97,587.32c169.68,169.68,367.28,302.9,587.32,395.97c227.85,96.37,469.84,145.24,719.27,145.24
	s491.42-48.86,719.26-145.24c220.05-93.07,417.65-226.29,587.32-395.97c169.68-169.68,302.9-367.28,395.97-587.32
	c96.37-227.85,145.24-469.84,145.24-719.27S3798.94,1508.58,3702.56,1280.73z M3716.38,2000c0,101.94-8.88,202.52-26.17,300.88
	c-613.91,33.18-1218.76-21.39-1799.82-162.34c150.06-389.41,551.43-571.23,1012.51-780.02c181.78-82.31,369.18-167.24,552.08-270.06
	C3625.21,1359.01,3716.38,1672.49,3716.38,2000z M3213.66,786.34c60.82,60.82,116.5,125.39,166.85,193.2
	c-174.97,97.6-356.06,179.66-531.83,259.25c-473.3,214.32-921.38,417.29-1086.45,867.17c-101.63-27.04-203.8-57.08-304.48-89.63
	c-26.85-8.69-53.47-17.53-79.74-26.43c142.61-344.4,333.66-666.64,568.55-958.72c188.98-235,406.6-450.95,647.08-642.48
	C2823.89,473.39,3035.02,607.7,3213.66,786.34z M2000,283.62c151.82,0,300.59,19.7,443.51,57.66
	c-221.11,183.5-422.35,387.43-599.35,607.54c-244.24,303.71-442.61,639.02-590.3,997.48c-84.65-30.77-169-63.64-252.42-98.27
	c46.18-199.52,48.41-433.89,6.43-699.31c-32.6-206.12-84.14-377.27-112.51-462.4C1204.24,425.7,1591.18,283.62,2000,283.62z
	 M786.34,786.34c0.72-0.72,1.45-1.4,2.17-2.12c59.5,195.18,168.43,632.36,89.75,1011.05c-14.76-6.52-29.52-13.04-44.2-19.66
	c-164.24-74.05-327.31-156.66-485.51-245.7C427.33,1251.58,576.18,996.5,786.34,786.34z M283.62,2000
	c0-114.59,11.15-227.46,32.95-337.38c151.4,84.03,306.91,162.2,463.46,232.78c20.96,9.46,42.01,18.8,63.13,28.04
	c-4.27,12.31-8.71,24.55-13.48,36.64c-82.19,208.02-232.68,420.19-234.19,422.3c-59.66,83.59-125.72,163.14-197.01,237.45
	C323.06,2424.77,283.62,2215.42,283.62,2000z M455.14,2749.65c90.38-89.78,173.47-187.43,247.33-290.92
	c6.54-9.17,161.22-227.07,249.45-450.35c4.34-10.99,8.47-22.15,12.48-33.41c79.83,32.92,160.46,64.23,241.37,93.69
	c-154.38,412.04-240.4,844.73-256.33,1288.91c-56.86-44.19-111.34-92.17-163.08-143.91C648.88,3076.2,537.72,2919.47,455.14,2749.65
	z M1078.56,3448.71c6.78-461.19,91.21-910.29,251.18-1336.41c28.81,9.8,58.04,19.53,87.55,29.08
	c101.81,32.91,205.08,63.31,307.85,90.71c-36.95,165.66-26.13,326.77,33.04,501.63c58.96,174.23,157.32,340.69,271.21,533.45
	c79.24,134.12,160.8,272.21,238.44,428.45c-87.81,13.68-177.28,20.76-267.84,20.76C1668.49,3716.38,1351.36,3622.97,1078.56,3448.71
	z M3213.66,3213.66c-227.34,227.35-507.27,382.94-812.32,455.68c-85.02-174.85-176.9-330.45-258.78-469.03
	c-207.47-351.12-360.66-610.47-289.97-935.71c483.33,117.83,982.65,177.16,1489.96,177.16c105.89,0,212.17-2.63,318.69-7.8
	C3585.38,2726.33,3432.88,2994.44,3213.66,3213.66z"/>
</svg>
